<?xml version="1.0" encoding="UTF-8" standalone="no"?>
<!-- Created with Inkscape (http://www.inkscape.org/) -->
<svg id="svg2964" xmlns="http://www.w3.org/2000/svg" height="66.156" width="200" version="1.0">
 <g id="layer1" transform="translate(-325.25 -551.09)">
  <path id="path4047" d="m455.84 584.32c0 16.74-13.57 30.32-30.32 30.32-16.73 0-30.3-13.58-30.3-30.32 0-16.73 13.57-30.31 30.3-30.31 16.75 0 30.32 13.58 30.32 30.31" fill="#BF0000"/>
  <path id="path4049" d="m431.48 588.57c3.36-1.89 5.52-5.54 5.52-9.48 0-6.08-4.93-11.03-10.99-11.03h-10.46v32.53h6.19v-10.51h3.18c0.27 0.36 7.58 10.51 7.58 10.51h7.59s-8.06-11.25-8.61-12.02zm-9.74-14.32h4.27c2.65 0 4.8 2.17 4.8 4.84 0 2.64-2.15 4.79-4.8 4.79h-4.27v-9.63" fill="#fff"/>
  <path id="path4051" d="m520.25 561.56v-6.34h-62.62v6.34h27.25v9.3c0 2.43-0.04 3.73-0.16 5.48h-25.15v6.4h24.18c-1.79 7.3-7.45 18.78-25.29 25.11l-0.98 0.35v7.42l2-0.76c18.84-7.23 25.91-15.38 29.29-25.72 4.06 10.54 13.74 18.99 29.42 25.73l2.06 0.87v-7.67l-1.02-0.33c-14.76-4.81-23.55-15.96-25.96-25h24.83v-6.4h-26.26c-0.16-1.26-0.3-2.81-0.3-5.48v-9.3h28.71"/>
  <path id="path4053" d="m331.73 554.95v6.92l12.75 6.93v-6.93l-12.75-6.92"/>
  <path id="path4055" d="m391.49 588.76v-6.78l-12.78-6.94v6.92l12.51 6.8h-26.51v-2.39h10.4v-28.66h-11.08l1.47-4.81h-6.81l-1.48 4.81h-9.12v6.12 6.93 2.33 0.01 6.92 6.35h10.22v2.39h-26.31l12.48-6.78v-6.93l-12.73 6.92v12.99h21.37c-4.54 4.33-11.56 9.43-21.88 13l-0.99 0.35v6.53l1.97-0.72c11.19-4.03 19.93-9.23 26.09-15.48v17.1h6.4v-17.1c6.23 6.36 15.03 11.53 26.22 15.37l1.96 0.67v-6.51l-1.02-0.33c-10.34-3.44-17.41-8.53-21.98-12.88h21.6v-6.2zm-37.07-25.23h14.3v5.25h-14.3v-5.25zm0 16.96v-5.97h14.3v5.97h-14.3"/>
  <path id="path4057" d="m391.49 561.87v-6.92l-2.18 1.18-10.6 5.75v6.93l12.78-6.94"/>
 </g>
</svg>
